<svg width="41" height="21" viewBox="0 0 41 21" fill="none" xmlns="http://www.w3.org/2000/svg">
<path d="M0.589058 7.36273C-0.372254 7.98823 0.188512 8.92648 0.589058 9.31742L0.0282957 10.4902C-0.163967 11.756 0.66916 11.6631 1.14982 11.6631C1.57843 11.6631 2.16454 11.1679 2.59179 10.803C2.93894 10.6466 3.79343 10.6466 4.3542 10.6466C4.85473 10.6466 4.59452 10.9594 5.40674 11.2721H8.76021C11.3878 11.4598 15.9968 13.2268 17.9728 14.0869L20.5363 14.3996C21.049 14.7124 20.7499 15.1554 20.5363 15.3379H17.9728C14.448 13.8367 11.2169 12.9922 10.042 12.7577C6.2608 11.9445 4.72804 12.4189 4.43431 12.7577C1.22994 16.1979 3.79343 19.4558 5.47573 20.6547H21.7379C22.5711 20.3419 23.7407 19.534 24.2213 19.1691C29.3483 14.2276 28.0132 9.96899 26.7047 8.45736C23.244 3.26568 17.3052 4.78253 14.7684 6.18991C12.7227 7.43784 7.74335 7.75212 5.49233 7.75366C5.46334 7.7573 5.43431 7.76095 5.40674 7.7644C4.92774 7.85498 4.56177 8.25831 4.43431 8.45736H2.59179C2.07909 7.5191 1.04301 7.33666 0.589058 7.36273Z" fill="#479FF8"/>
<path d="M11.8044 5.79894C13.6736 3.19268 19.7032 -1.51944 28.8677 0.482169C34.3685 1.96774 44.2807 7.70672 39.9228 18.7781C39.6824 19.143 38.8813 20.0291 37.5996 20.6546C36.3178 21.2801 28.2001 20.9153 24.3014 20.6546C26.4644 19.2472 30.4058 15.0095 28.8677 9.31739C27.7461 6.11169 22.7633 0.92002 11.8044 5.79894Z" fill="#479FF8"/>
</svg>
