<svg width="21" height="32" viewBox="0 0 21 32" fill="none" xmlns="http://www.w3.org/2000/svg">
<path d="M7.76466 11.0726C8.17839 9.59391 9.53963 8.33113 10.2737 7.81063C10.3264 7.77324 10.3895 7.75429 10.4542 7.75429C10.4765 7.75429 10.4988 7.75197 10.5207 7.74738L11.5297 7.53534C11.6901 7.50165 11.8446 7.44438 11.9881 7.36541C12.511 7.07775 13.153 7.0866 13.6306 7.4445C15.4765 8.82789 17.1755 10.9155 18.1468 12.2921C18.4753 12.7577 18.6334 13.3173 18.6334 13.887V15.9565C18.6334 16.587 18.4805 17.27 17.9429 17.5995C17.3831 17.9426 16.83 17.8424 16.3834 17.5915C15.8085 17.2685 15.623 16.569 15.623 15.9096V14.2671C15.623 14.0325 15.6013 13.7965 15.5235 13.5752C15.219 12.7099 14.6371 12.2006 14.2797 11.996C14.204 11.9527 14.1171 11.9357 14.0298 11.9357C13.6873 11.9357 13.4096 12.2134 13.4096 12.556V18.0265C13.4096 18.6559 13.2228 19.281 12.7833 19.7316C11.8714 20.6667 10.6618 21.46 9.83475 21.9235C9.5098 22.1056 9.20319 22.3242 8.97107 22.6155C7.33432 24.6698 6.11028 28.0344 5.59094 29.8506C5.51809 30.1053 5.42531 30.3577 5.26491 30.5686C4.04666 32.1705 2.01049 31.2952 1.78679 29.9783C1.76016 29.8215 1.77931 29.6615 1.80447 29.5044L2.07655 27.807C2.89111 23.8504 5.45579 20.883 6.63631 19.8938C7.28248 19.3547 7.56274 18.8882 7.66325 18.5664C7.7399 18.321 7.69879 18.0551 7.69879 17.798V11.6375C7.69879 11.4471 7.71335 11.256 7.76466 11.0726Z" stroke="#3BBC2D"/>
<path d="M5.41984 11.5L1.27628 15.5327C0.645731 16.2577 1.05108 17.9795 2.94271 17.5717L5.60001 15.5327" stroke="#3BBC2D"/>
<path d="M11.2423 23.8754L16.0391 30.2158C16.82 31.0873 18.796 30.8801 19.1021 29.0151C19.1897 28.4811 18.9641 27.9566 18.6508 27.5154L14.0917 21.0929" stroke="#3BBC2D"/>
<circle cx="10.2" cy="3.83334" r="3.33334" stroke="#3BBC2D"/>
</svg>
