<svg width="32" height="37" viewBox="0 0 32 37" fill="none" xmlns="http://www.w3.org/2000/svg">
<path d="M19.5616 4.38036C19.5616 6.5545 21.2056 8.26071 23.1665 8.26071C25.1273 8.26071 26.7714 6.5545 26.7714 4.38036C26.7714 2.20621 25.1273 0.5 23.1665 0.5C21.2056 0.5 19.5616 2.20621 19.5616 4.38036Z" stroke="black"/>
<path d="M22.7572 10.3854L20.8857 7.70041C20.8152 7.59924 20.7355 7.5048 20.6476 7.41831L19.0575 5.85398C18.9747 5.7725 18.8855 5.69877 18.7898 5.63296C17.8656 4.99776 16.1677 3.84172 15.7673 3.61194C15.4412 3.42476 15.1465 3.52684 14.786 3.58292C14.5641 3.61744 14.34 3.64976 14.128 3.72382L8.93357 5.53838C8.57255 5.6645 8.24449 5.88644 8.04258 6.2112C6.93688 7.98966 8.09829 8.89663 9.1748 9.23887C9.51218 9.34613 9.87394 9.29846 10.2046 9.17196L13.9655 7.73305C14.2733 7.61526 14.6164 7.631 14.9122 7.77651L15.5742 8.10219C15.9382 8.28123 16.0338 8.75649 15.7673 9.06232L11.1403 13.7831C11.0594 13.8656 10.9703 13.9399 10.8803 14.0122C9.35629 15.2375 9.80012 17.2636 10.2273 18.1463L11.9391 23.0581C12.3921 24.358 11.427 25.7163 10.0505 25.7163H6.80331C6.454 25.7163 6.09927 25.7959 5.82893 26.0171C4.64181 26.9885 5.12602 28.2682 5.78222 29.1187C6.06815 29.4893 6.52503 29.6655 6.99271 29.6843C9.33226 29.7784 13.4183 29.8702 15.5035 29.6527C17.0624 29.6527 17.3919 27.9318 17.364 26.8734C17.3597 26.7076 17.3226 26.5455 17.268 26.3889L15.1165 20.215C14.8684 19.5033 15.0416 18.7125 15.5644 18.1696L18.7935 14.8163C19.5045 14.0778 20.7324 14.2663 21.1893 15.184C21.2674 15.3408 21.3147 15.5113 21.3435 15.6841C21.5727 17.0599 22.3559 17.859 22.9665 18.2332C23.2474 18.4053 23.5876 18.4191 23.912 18.3618L29.702 17.3394C30.0774 17.2731 30.4364 17.1077 30.6857 16.8192C31.9146 15.3975 31.2776 14.2556 30.5142 13.6331C30.2099 13.3849 29.8048 13.3232 29.4142 13.364L25.7178 13.7497C24.8259 13.8428 23.981 13.3307 23.6508 12.4969L22.9759 10.7926C22.919 10.6489 22.8456 10.5123 22.7572 10.3854Z" stroke="black"/>
<path d="M10.5789 35.6183L14.9566 29.7864H10.5789L8.51884 33.1628C7.90082 36.355 9.63472 36.1299 10.5789 35.6183Z" stroke="black"/>
<path d="M8.38879 15.7693H0.999982" stroke="black" stroke-linecap="round"/>
<path d="M5.92584 17.5215H0.999968" stroke="black" stroke-linecap="round"/>
<path d="M3.46295 19.2736H1.00001" stroke="black" stroke-linecap="round"/>
</svg>
