<svg width="27" height="35" viewBox="0 0 27 35" fill="none" xmlns="http://www.w3.org/2000/svg">
<path d="M15.9882 27.931C14.8505 29.1292 18.9463 33.5622 16.5571 34.7604C16.0836 34.9978 14.7368 35 14.3955 35H10.8686C9.84465 35 9.29853 33.1788 10.2997 31.6452C11.5512 29.7282 11.0961 27.4518 11.0961 26.9725C11.2781 26.2057 10.641 25.375 10.2997 25.0555C9.84463 24.768 10.3376 24.0571 10.641 23.7376L8.82071 18.7054C3.26869 19.3764 2.63916 17.068 3.0184 15.8299C3.5114 15.0711 4.06509 13.6014 2.33577 13.7931C0.174124 14.0327 -0.849805 9.59961 0.856757 8.76091C2.22201 8.08996 2.41162 7.04359 2.33577 6.60428C1.31184 4.32783 3.81479 1.69194 5.52135 2.41082C6.8866 2.98592 7.45546 2.33094 7.56923 1.93156C9.75363 -0.36885 11.8925 -0.145199 12.6889 0.254178C12.8785 1.21268 13.8039 2.67441 15.9882 0.853248C18.1726 -0.967913 20.084 0.973061 20.7666 2.17119C20.7666 2.84215 21.4493 3.56901 21.7906 3.84857C23.5199 3.46517 24.9382 4.00832 25.4312 4.32783C26.7965 4.99878 26.9103 7.00365 26.7965 7.92222C25.7953 8.68903 26.0759 9.67948 26.3414 10.0789C27.2516 11.9 27.024 13.1541 26.7965 13.5534C26.6144 14.9912 24.8245 15.5104 23.9522 15.5903C23.9901 15.3506 23.8384 15.3746 22.9283 17.3875C22.0181 19.4003 19.0601 19.2645 17.6948 18.945C17.5052 19.9834 17.126 22.2758 17.126 23.1385C17.126 24.0012 16.3675 25.1753 15.9882 25.6546C16.2613 26.6131 16.102 27.5716 15.9882 27.931Z" fill="#80D554"/>
</svg>
