<svg width="17" height="37" viewBox="0 0 17 37" fill="none" xmlns="http://www.w3.org/2000/svg">
<path d="M13.1184 20.9848C13.6761 22.8483 16 22.2812 16 21.1469L15.3493 11.6673C15.498 8.62083 12.8705 8.23732 11.5382 8.42638C8.94298 8.99189 6.77873 8.6894 5.94307 8.44892C5.89284 8.43447 5.84182 8.42188 5.79011 8.41426C4.41485 8.21159 3.35134 8.65871 2.98638 8.9125C1.22783 9.93438 0.889178 17.3857 1.02783 20.8336C1.03195 20.9359 1.04969 21.0354 1.08768 21.1305C1.79429 22.8995 3.83257 22.3266 4.19479 20.9848M13.1184 20.9848L12.7466 13.6118M13.1184 20.9848L12.7466 34.4345C12.7466 35.6955 10.4069 37.0792 9.04735 34.6479C8.97017 34.5099 8.93299 34.3527 8.92822 34.1947L8.56365 22.1191V34.4345C8.56365 35.7066 5.34136 37.1347 4.43026 34.5848C4.39544 34.4873 4.37991 34.382 4.37837 34.2785L4.19479 21.9571V20.9848M4.3807 13.6118L4.19479 20.9848" stroke="black"/>
<path d="M4.97364 3.56498C4.97364 5.19541 6.51421 6.62995 8.56363 6.62995C10.6131 6.62995 12.1536 5.19541 12.1536 3.56498C12.1536 1.93454 10.6131 0.5 8.56363 0.5C6.51421 0.5 4.97364 1.93454 4.97364 3.56498Z" stroke="black"/>
</svg>
