<svg width="29" height="31" viewBox="0 0 29 31" fill="none" xmlns="http://www.w3.org/2000/svg">
<circle cx="8.29733" cy="3.64865" r="3.14865" stroke="#3BBC2D"/>
<path d="M8.68654 8.61642L10.3071 6.43754C10.3814 6.33771 10.4648 6.24502 10.5562 6.16069L11.9336 4.89083C12.0178 4.81319 12.1082 4.74309 12.2045 4.68107C13.0297 4.14974 14.5206 3.1987 14.874 3.00862C15.1586 2.85555 15.4163 2.93473 15.7288 2.98187C15.9378 3.01339 16.1488 3.04212 16.3496 3.10787L20.8955 4.59601C21.2511 4.71243 21.5803 4.92005 21.7807 5.2361C22.6851 6.66255 21.6964 7.40036 20.7609 7.68742C20.4427 7.78506 20.1031 7.74194 19.7898 7.6296L16.4352 6.42684C16.186 6.33751 15.9118 6.34954 15.6714 6.46035L15.0305 6.75578C14.7222 6.89792 14.6428 7.29989 14.874 7.54856L18.9708 11.4655C19.0533 11.5444 19.1436 11.6147 19.2342 11.6841C20.5693 12.7059 20.1764 14.3829 19.7982 15.1151L18.4564 18.7235C17.9705 20.0301 18.9369 21.4206 20.3309 21.4206H22.8119C23.1425 21.4206 23.4793 21.4896 23.7384 21.6951C24.7288 22.4808 24.3476 23.5001 23.7929 24.2007C23.5148 24.5519 23.0737 24.7109 22.626 24.7275C20.5391 24.8053 16.948 24.8793 15.1085 24.6994C13.7524 24.6994 13.443 23.3265 13.4536 22.4416C13.4557 22.2658 13.4981 22.0938 13.5594 21.929L15.3577 17.0933C15.6338 16.3508 15.4457 15.5153 14.878 14.9629L12.1429 12.3012C11.5152 11.6903 10.4769 11.8529 10.066 12.6264C9.98917 12.771 9.94273 12.9296 9.91286 13.0905C9.70653 14.2023 9.03556 14.8571 8.50097 15.1724C8.23441 15.3296 7.91494 15.341 7.60961 15.2905L2.53022 14.45C2.16848 14.3901 1.81882 14.2402 1.57464 13.9666C0.552288 12.8215 1.07794 11.8987 1.73334 11.3813C2.02415 11.1517 2.4069 11.0987 2.77564 11.1348L5.90616 11.4409C6.77717 11.5261 7.60239 11.035 7.94306 10.2289L8.44907 9.03148C8.51134 8.88413 8.59107 8.74478 8.68654 8.61642Z" stroke="#3BBC2D"/>
<path d="M19.4857 29.6686L15.5946 24.8108H19.4857L21.3168 27.6232C21.8662 30.2822 20.325 30.0947 19.4857 29.6686Z" stroke="#3BBC2D"/>
<path d="M21.4324 13.1351H27.9999" stroke="#3BBC2D" stroke-linecap="round"/>
<path d="M23.6216 14.5946H28" stroke="#3BBC2D" stroke-linecap="round"/>
<path d="M25.8108 16.0541H28" stroke="#3BBC2D" stroke-linecap="round"/>
</svg>
