<svg width="24" height="28" viewBox="0 0 24 28" fill="none" xmlns="http://www.w3.org/2000/svg">
<path d="M11.5 3.13953C11.5 4.55561 10.2285 5.77907 8.5625 5.77907C6.89653 5.77907 5.625 4.55561 5.625 3.13953C5.625 1.72346 6.89653 0.5 8.5625 0.5C10.2285 0.5 11.5 1.72346 11.5 3.13953Z" stroke="#3BBC2D"/>
<path d="M21.6905 6.28602L6.91757 6.48163C6.67697 6.48482 6.43891 6.53139 6.21485 6.61913L5.71903 6.81327C5.23523 7.0027 4.8442 7.37258 4.6292 7.84558C3.76459 9.74764 2.28355 13.0252 1.33266 15.1971C0.243054 17.6858 2.08933 18.5845 3.14868 18.7228L6.3628 18.8276C7.82606 18.8754 8.74382 20.4275 8.08056 21.7327L6.80177 24.2491C6.63938 24.5686 6.55418 24.9295 6.61967 25.2819C6.95977 27.112 8.33959 27.1725 9.36564 26.8489C9.76424 26.7232 10.0601 26.4032 10.2485 26.0301L13.9713 18.6608C14.0202 18.564 14.0784 18.4708 14.1395 18.3812C15.3061 16.6714 14.408 15.6828 13.6236 15.3031C13.4558 15.2218 13.2692 15.1931 13.0829 15.1854L11.4326 15.1169C9.98958 15.0569 9.08386 13.5342 9.72002 12.2376L11.0208 9.58657C11.2044 9.21235 11.5849 8.97519 12.0017 8.97519H20.8736C21.1604 8.97519 21.4474 8.91708 21.7007 8.78256C23.3383 7.91273 23.1468 7.08731 22.6396 6.58992C22.3933 6.34835 22.0355 6.28145 21.6905 6.28602Z" stroke="#3BBC2D"/>
</svg>
