<svg width="41" height="40" viewBox="0 0 41 40" fill="none" xmlns="http://www.w3.org/2000/svg">
<rect width="41" height="40" rx="4" fill="#3BBC2D"/>
<path d="M14.3394 12H15.7265M15.8466 14.1207H14C12.3431 14.1207 11 15.4638 11 17.1207V24C11 25.6569 12.3431 27 14 27H28.1389C29.7958 27 31.1389 25.6569 31.1389 24V17.1207C31.1389 15.4638 29.7957 14.1207 28.1389 14.1207H26.2552C25.4538 14.1207 24.7045 13.7235 24.2547 13.0603V13.0603C23.8048 12.3971 23.0555 12 22.2542 12H19.7677C18.9772 12 18.2399 12.3987 17.8072 13.0603V13.0603C17.3744 13.722 16.6371 14.1207 15.8466 14.1207Z" stroke="white"/>
<path d="M24.782 20.2241C24.782 22.2592 23.1224 23.9137 21.0693 23.9137C19.0162 23.9137 17.3566 22.2592 17.3566 20.2241C17.3566 18.1889 19.0162 16.5344 21.0693 16.5344C23.1224 16.5344 24.782 18.1889 24.782 20.2241Z" stroke="white"/>
<mask id="path-4-inside-1_392_246" fill="white">
<ellipse cx="27.2345" cy="16.6034" rx="0.924745" ry="0.87931"/>
</mask>
<path d="M27.1592 16.6034C27.1592 16.5534 27.1823 16.5167 27.1993 16.5005C27.2155 16.4851 27.2301 16.4827 27.2345 16.4827V18.4827C28.2494 18.4827 29.1592 17.6882 29.1592 16.6034H27.1592ZM27.2345 16.4827C27.2389 16.4827 27.2535 16.4851 27.2697 16.5005C27.2867 16.5167 27.3097 16.5534 27.3097 16.6034H25.3097C25.3097 17.6882 26.2195 18.4827 27.2345 18.4827V16.4827ZM27.3097 16.6034C27.3097 16.6535 27.2867 16.6901 27.2697 16.7064C27.2535 16.7217 27.2389 16.7241 27.2345 16.7241V14.7241C26.2195 14.7241 25.3097 15.5186 25.3097 16.6034H27.3097ZM27.2345 16.7241C27.2301 16.7241 27.2155 16.7217 27.1993 16.7064C27.1823 16.6901 27.1592 16.6535 27.1592 16.6034H29.1592C29.1592 15.5186 28.2494 14.7241 27.2345 14.7241V16.7241Z" fill="white" mask="url(#path-4-inside-1_392_246)"/>
</svg>
